<svg version="1.1" id="Layer_1" xmlns="http://www.w3.org/2000/svg" xmlns:xlink="http://www.w3.org/1999/xlink" x="0px" y="0px"
	 width="100%" viewBox="0 0 500 500" enable-background="new 0 0 500 500" xml:space="preserve">
<path fill="#FDD808" opacity="1.000000" stroke="none" 
	d="
M285.000000,501.000000 
	C190.000015,501.000000 95.500046,501.000000 1.000051,501.000000 
	C1.000034,334.333405 1.000034,167.666794 1.000017,1.000140 
	C167.666565,1.000093 334.333130,1.000093 500.999756,1.000047 
	C500.999847,167.666519 500.999847,334.333038 500.999939,500.999786 
	C429.166656,501.000000 357.333344,501.000000 285.000000,501.000000 
M266.532318,472.074432 
	C271.559265,473.051788 276.572784,474.782166 281.615601,474.872253 
	C300.440094,475.208496 319.274231,475.025208 338.104706,474.998383 
	C345.604462,474.987701 348.010193,472.602509 348.021729,465.164490 
	C348.049835,447.000580 348.043335,428.836609 348.024933,410.672668 
	C348.016663,402.515320 345.737427,400.181122 337.675873,400.160797 
	C323.178131,400.124268 308.680267,400.149689 294.182434,400.149200 
	C292.395050,400.149139 290.607635,400.149200 288.647217,400.149200 
	C288.647217,300.462433 288.647217,201.421204 288.647217,101.850731 
	C290.801880,101.850731 292.600433,101.850838 294.399017,101.850716 
	C309.063477,101.849747 323.728210,101.897125 338.392334,101.826912 
	C345.511261,101.792831 348.006653,99.231636 348.018799,92.124069 
	C348.050720,73.460258 348.065613,54.796246 348.008545,36.132553 
	C347.988678,29.626635 345.383759,27.027958 338.890686,27.012114 
	C319.393768,26.964535 299.891327,26.753284 280.403168,27.171499 
	C275.238800,27.282326 269.748444,28.647274 265.075684,30.851999 
	C259.816956,33.333191 255.313538,37.415180 250.288132,40.936371 
	C241.489792,30.454378 229.763123,26.549042 215.922241,26.889824 
	C198.602005,27.316277 181.263260,26.974764 163.932571,27.000784 
	C156.341415,27.012180 153.982101,29.326584 153.973358,36.745743 
	C153.951752,55.076302 153.951263,73.406914 153.973129,91.737473 
	C153.982391,99.494904 156.307739,101.815987 164.176605,101.837715 
	C178.840958,101.878212 193.505524,101.839096 208.169937,101.865868 
	C209.909943,101.869049 211.649597,102.076920 213.393982,102.190201 
	C213.393982,201.712082 213.393982,300.629974 213.393982,400.149231 
	C211.299088,400.149231 209.507935,400.149170 207.716782,400.149292 
	C193.052307,400.150085 178.387665,400.108002 163.723450,400.169922 
	C156.440109,400.200684 153.986160,402.643402 153.976334,409.696228 
	C153.950317,428.360046 153.945297,447.023987 153.979691,465.687775 
	C153.992218,472.486633 156.495667,474.978546 163.377319,474.992737 
	C182.541016,475.032196 201.704895,475.022217 220.868637,474.996887 
	C231.403793,474.982971 240.318222,471.018738 247.709457,463.615540 
	C248.732742,462.590607 249.265900,461.076294 249.580490,460.543304 
	C255.800629,464.857117 260.809418,468.330811 266.532318,472.074432 
z"/>
<path fill="#FD0554" opacity="1.000000" stroke="none" 
	d="
M266.175262,471.939453 
	C260.809418,468.330811 255.800629,464.857117 249.580490,460.543304 
	C249.265900,461.076294 248.732742,462.590607 247.709457,463.615540 
	C240.318222,471.018738 231.403793,474.982971 220.868637,474.996887 
	C201.704895,475.022217 182.541016,475.032196 163.377319,474.992737 
	C156.495667,474.978546 153.992218,472.486633 153.979691,465.687775 
	C153.945297,447.023987 153.950317,428.360046 153.976334,409.696228 
	C153.986160,402.643402 156.440109,400.200684 163.723450,400.169922 
	C178.387665,400.108002 193.052307,400.150085 207.716782,400.149292 
	C209.507935,400.149170 211.299088,400.149231 213.393982,400.149231 
	C213.393982,300.629974 213.393982,201.712082 213.393982,102.190201 
	C211.649597,102.076920 209.909943,101.869049 208.169937,101.865868 
	C193.505524,101.839096 178.840958,101.878212 164.176605,101.837715 
	C156.307739,101.815987 153.982391,99.494904 153.973129,91.737473 
	C153.951263,73.406914 153.951752,55.076302 153.973358,36.745743 
	C153.982101,29.326584 156.341415,27.012180 163.932571,27.000784 
	C181.263260,26.974764 198.602005,27.316277 215.922241,26.889824 
	C229.763123,26.549042 241.489792,30.454378 250.288132,40.936371 
	C255.313538,37.415180 259.816956,33.333191 265.075684,30.851999 
	C269.748444,28.647274 275.238800,27.282326 280.403168,27.171499 
	C299.891327,26.753284 319.393768,26.964535 338.890686,27.012114 
	C345.383759,27.027958 347.988678,29.626635 348.008545,36.132553 
	C348.065613,54.796246 348.050720,73.460258 348.018799,92.124069 
	C348.006653,99.231636 345.511261,101.792831 338.392334,101.826912 
	C323.728210,101.897125 309.063477,101.849747 294.399017,101.850716 
	C292.600433,101.850838 290.801880,101.850731 288.647217,101.850731 
	C288.647217,201.421204 288.647217,300.462433 288.647217,400.149200 
	C290.607635,400.149200 292.395050,400.149139 294.182434,400.149200 
	C308.680267,400.149689 323.178131,400.124268 337.675873,400.160797 
	C345.737427,400.181122 348.016663,402.515320 348.024933,410.672668 
	C348.043335,428.836609 348.049835,447.000580 348.021729,465.164490 
	C348.010193,472.602509 345.604462,474.987701 338.104706,474.998383 
	C319.274231,475.025208 300.440094,475.208496 281.615601,474.872253 
	C276.572784,474.782166 271.559265,473.051788 266.175262,471.939453 
M273.297974,108.503716 
	C273.300293,104.504372 273.267731,100.504646 273.312561,96.505775 
	C273.394196,89.224533 275.667419,86.871651 282.881744,86.845833 
	C297.713470,86.792755 312.545471,86.828888 327.377380,86.828323 
	C329.144470,86.828255 330.911560,86.828316 332.722321,86.828316 
	C332.722321,71.532471 332.722321,56.960747 332.722321,42.065617 
	C314.423065,42.065617 296.442657,41.649876 278.493988,42.224468 
	C268.041565,42.559082 260.048767,51.132656 258.644409,61.532692 
	C258.421783,63.181484 258.821869,65.389503 257.901611,66.371170 
	C255.916351,68.488998 253.328568,71.217102 250.858200,71.353287 
	C248.669907,71.473907 246.083618,68.647713 244.123474,66.674889 
	C243.256287,65.802109 243.454544,63.831017 243.248276,62.347507 
	C241.492874,49.721058 232.827133,42.039711 220.188477,42.014362 
	C204.690033,41.983276 189.191483,41.999603 173.693008,42.019032 
	C172.245773,42.020844 170.798721,42.192001 169.256210,42.290634 
	C169.256210,57.183788 169.256210,71.750412 169.256210,86.828331 
	C171.358124,86.828331 173.150513,86.828217 174.942886,86.828354 
	C189.774780,86.829468 204.606873,86.788147 219.438507,86.851303 
	C225.976990,86.879143 228.398972,89.340149 228.680023,95.897110 
	C228.737061,97.227997 228.697601,98.563156 228.697632,99.896347 
	C228.699402,165.556656 228.701248,231.216949 228.701614,296.877258 
	C228.701797,332.207184 228.701767,367.537079 228.696671,402.867004 
	C228.695099,413.650208 227.143265,415.169525 216.178528,415.171173 
	C203.013138,415.173187 189.847733,415.171631 176.682343,415.171631 
	C174.242630,415.171631 171.802917,415.171631 169.252548,415.171631 
	C169.252548,430.425690 169.252548,444.995941 169.252548,459.898407 
	C187.856720,459.898407 206.159515,460.227020 224.441772,459.756622 
	C233.279709,459.529205 241.543045,450.904449 243.022736,442.028412 
	C243.296387,440.386810 243.392517,438.716400 243.613556,437.065063 
	C244.188339,432.770752 246.832596,430.376129 250.982117,430.364777 
	C255.169479,430.353302 257.722717,432.837952 258.313812,437.100677 
	C258.473999,438.255768 258.612335,439.413940 258.763153,440.570374 
	C260.239899,451.892609 269.174072,459.938873 280.490814,459.978333 
	C296.655701,460.034668 312.820953,460.000946 328.986023,459.976166 
	C330.254059,459.974213 331.521790,459.741150 332.671814,459.627197 
	C332.671814,444.691254 332.671814,430.125793 332.671814,415.171661 
	C330.484863,415.171661 328.679352,415.171967 326.873810,415.171631 
	C311.875275,415.168854 296.876343,415.224426 281.878357,415.133514 
	C276.137268,415.098724 273.684875,412.623260 273.334076,406.972504 
	C273.231018,405.312042 273.302368,403.640503 273.302338,401.974030 
	C273.300415,304.483490 273.299438,206.992935 273.297974,108.503716 
z"/>
<path fill="#FDD708" opacity="1.000000" stroke="none" 
	d="
M273.298157,109.003052 
	C273.299438,206.992935 273.300415,304.483490 273.302338,401.974030 
	C273.302368,403.640503 273.231018,405.312042 273.334076,406.972504 
	C273.684875,412.623260 276.137268,415.098724 281.878357,415.133514 
	C296.876343,415.224426 311.875275,415.168854 326.873810,415.171631 
	C328.679352,415.171967 330.484863,415.171661 332.671814,415.171661 
	C332.671814,430.125793 332.671814,444.691254 332.671814,459.627197 
	C331.521790,459.741150 330.254059,459.974213 328.986023,459.976166 
	C312.820953,460.000946 296.655701,460.034668 280.490814,459.978333 
	C269.174072,459.938873 260.239899,451.892609 258.763153,440.570374 
	C258.612335,439.413940 258.473999,438.255768 258.313812,437.100677 
	C257.722717,432.837952 255.169479,430.353302 250.982117,430.364777 
	C246.832596,430.376129 244.188339,432.770752 243.613556,437.065063 
	C243.392517,438.716400 243.296387,440.386810 243.022736,442.028412 
	C241.543045,450.904449 233.279709,459.529205 224.441772,459.756622 
	C206.159515,460.227020 187.856720,459.898407 169.252548,459.898407 
	C169.252548,444.995941 169.252548,430.425690 169.252548,415.171631 
	C171.802917,415.171631 174.242630,415.171631 176.682343,415.171631 
	C189.847733,415.171631 203.013138,415.173187 216.178528,415.171173 
	C227.143265,415.169525 228.695099,413.650208 228.696671,402.867004 
	C228.701767,367.537079 228.701797,332.207184 228.701614,296.877258 
	C228.701248,231.216949 228.699402,165.556656 228.697632,99.896347 
	C228.697601,98.563156 228.737061,97.227997 228.680023,95.897110 
	C228.398972,89.340149 225.976990,86.879143 219.438507,86.851303 
	C204.606873,86.788147 189.774780,86.829468 174.942886,86.828354 
	C173.150513,86.828217 171.358124,86.828331 169.256210,86.828331 
	C169.256210,71.750412 169.256210,57.183788 169.256210,42.290634 
	C170.798721,42.192001 172.245773,42.020844 173.693008,42.019032 
	C189.191483,41.999603 204.690033,41.983276 220.188477,42.014362 
	C232.827133,42.039711 241.492874,49.721058 243.248276,62.347507 
	C243.454544,63.831017 243.256287,65.802109 244.123474,66.674889 
	C246.083618,68.647713 248.669907,71.473907 250.858200,71.353287 
	C253.328568,71.217102 255.916351,68.488998 257.901611,66.371170 
	C258.821869,65.389503 258.421783,63.181484 258.644409,61.532692 
	C260.048767,51.132656 268.041565,42.559082 278.493988,42.224468 
	C296.442657,41.649876 314.423065,42.065617 332.722321,42.065617 
	C332.722321,56.960747 332.722321,71.532471 332.722321,86.828316 
	C330.911560,86.828316 329.144470,86.828255 327.377380,86.828323 
	C312.545471,86.828888 297.713470,86.792755 282.881744,86.845833 
	C275.667419,86.871651 273.394196,89.224533 273.312561,96.505775 
	C273.267731,100.504646 273.300293,104.504372 273.298157,109.003052 
z"/>
</svg>